Results
version=1
nRows=4
nColumns=85
inDegrees=yes
endheader
time	thorax_sagittal	thorax_frontal	thorax_horizontal	thorax_transx	thorax_transy	thorax_transz	cervix_sagittal	cervix_frontal	cervix_horizontal	caput_sagittal	caput_frontal	caput_horizontal	abdomen_sagittal	abdomen_frontal	abdomen_horizontal	cauda_sagittal	cauda_frontal	cauda_horizontal	left_r_m_superioris_sagittal	left_r_m_superioris_frontal	left_r_m_superioris_horizontal	left_r_m_superioris_transx	left_r_m_superioris_transy	left_r_m_superioris_transz	left_r_deltoidea_sagittal	left_r_deltoidea_frontal	left_r_deltoidea_horizontal	left_r_cubitalis_sagittal	left_r_cubitalis_frontal	left_r_cubitalis_horizontal	left_r_carpalis_sagittal	left_r_carpalis_frontal	left_r_carpalis_horizontal	left_r_forepaw_sagittal	left_r_forepaw_frontal	left_r_forepaw_horizontal	right_r_m_superioris_sagittal	right_r_m_superioris_frontal	right_r_m_superioris_horizontal	right_r_m_superioris_transx	right_r_m_superioris_transy	right_r_m_superioris_transz	right_r_deltoidea_sagittal	right_r_deltoidea_frontal	right_r_deltoidea_horizontal	right_r_cubitalis_sagittal	right_r_cubitalis_frontal	right_r_cubitalis_horizontal	right_r_carpalis_sagittal	right_r_carpalis_frontal	right_r_carpalis_horizontal	right_r_forepaw_sagittal	right_r_forepaw_frontal	right_r_forepaw_horizontal	m_inferioris_sagittal	m_inferioris_frontal	m_inferioris_horizontal	m_inferioris_transx	m_inferioris_transy	m_inferioris_transz	left_r_coxae_sagittal	left_r_coxae_frontal	left_r_coxae_horizontal	left_r_genus_sagittal	left_r_genus_frontal	left_r_genus_horizontal	left_r_talocruralis_sagittal	left_r_talocruralis_frontal	left_r_talocruralis_horizontal	left_r_hindpaw_sagittal	left_r_hindpaw_frontal	left_r_hindpaw_horizontal	right_r_coxae_sagittal	right_r_coxae_frontal	right_r_coxae_horizontal	right_r_genus_sagittal	right_r_genus_frontal	right_r_genus_horizontal	right_r_talocruralis_sagittal	right_r_talocruralis_frontal	right_r_talocruralis_horizontal	right_r_hindpaw_sagittal	right_r_hindpaw_frontal	right_r_hindpaw_horizontal
      4.25600000	   -143.12830244	     31.48037353	    -12.15656167	     -0.33316648	      0.21434675	     -4.89620055	     76.05113634	     10.42784572	     12.27864843	    -15.41672168	      8.50183139	    -33.59108437	     -2.93991579	    -10.17973803	      3.21912066	     -7.97236817	     -5.37384984	     -0.29013734	    -24.10671284	    -44.77185000	    -15.72529929	      0.04675442	     -0.15396889	      0.05730668	    114.94749968	    -15.16545437	    -15.24892412	    -90.35996465	     31.30959387	     12.57279795	     42.67267462	    -24.92377542	      0.80000000	      0.00000000	      0.00000000	      0.00000000	     -9.97954356	     27.80416943	     18.29052843	     -0.01306105	     -0.15291458	      0.04061583	    108.40173343	      7.11033225	     32.12377051	    -86.40655161	    -29.18502492	      7.26641255	      5.55876352	     -0.63565957	      0.80000000	      0.00000000	      0.00000000	      0.00000000	     22.13039503	     -3.16316560	     -0.31455784	     -0.00296631	     -0.06477520	      0.02675970	    -76.75632028	    -10.49525624	     -9.22727036	    159.07644687	     -5.82402189	     -3.94310199	   -136.65862453	      7.39025525	      2.30000000	      0.00000000	      0.00000000	      0.00000000	    -78.15029754	      5.82219287	      2.70067500	    158.63275312	      5.19334317	     10.22894823	   -130.20654931	     -8.66496101	      2.30000000	      0.00000000	      0.00000000	      0.00000000
      4.27266667	   -140.92235703	     30.62421986	    -13.39708224	     -0.33554752	      0.21789419	     -4.89639194	     75.94228224	     11.84066388	     12.33836393	    -17.59379994	      9.82854466	    -35.21029026	     -4.57136097	    -10.45630191	      2.61828151	     -6.96904217	     -5.54205554	      0.04355191	    -25.93997021	    -44.60887743	    -14.48631339	      0.04705163	     -0.15437998	      0.05723886	    110.85497549	    -15.01344938	    -16.78267366	    -91.26844421	     32.79149964	     15.34149270	     50.46627436	    -24.59709480	      0.80000000	      0.00000000	      0.00000000	      0.00000000	    -10.00460008	     27.44089752	     17.68785506	     -0.01352479	     -0.15397187	      0.04205912	    108.31050279	      6.26717245	     31.51283116	    -86.18076180	    -28.56951278	      7.24756914	      5.96431660	     -0.86161420	      0.80000000	      0.00000000	      0.00000000	      0.00000000	     23.16914582	     -3.19091646	      0.00309327	     -0.00338864	     -0.06356945	      0.02573059	    -75.17868988	    -11.52707231	     -8.54066353	    156.92624168	     -5.18258419	     -4.21304358	   -138.15516723	      7.57686308	      2.30000000	      0.00000000	      0.00000000	      0.00000000	    -77.86687780	      6.14367425	      2.78433129	    157.58044557	      5.25980958	     10.07918467	   -130.96527224	     -8.37241584	      2.30000000	      0.00000000	      0.00000000	      0.00000000
      4.28933333	   -138.97570474	     30.28497835	    -14.25573071	     -0.33858954	      0.22320387	     -4.89639627	     76.07546535	     12.87584560	     12.02060634	    -18.89068015	     10.75329806	    -35.29580731	     -6.10298824	    -11.17283389	      1.90820630	     -5.24438360	     -6.14848786	      0.23109371	    -26.93682208	    -44.40692337	    -13.03365845	      0.04746808	     -0.15425980	      0.05676208	    105.97827562	    -14.43053692	    -18.06163230	    -92.76815781	     33.88648157	     19.69165715	     60.60172946	    -22.48345746	      0.80000000	      0.00000000	      0.00000000	      0.00000000	     -9.89379662	     27.23548288	     16.96383048	     -0.01316753	     -0.15380471	      0.04148201	    108.37614170	      5.39074277	     31.20186028	    -85.66960162	    -28.24602252	      7.24172540	      5.89678713	     -0.90809063	      0.80000000	      0.00000000	      0.00000000	      0.00000000	     24.91859876	     -3.68452616	      0.32402006	     -0.00345013	     -0.06266435	      0.02457491	    -75.44358424	    -11.41869851	     -7.70709277	    154.87931568	     -3.89985944	     -4.37264772	   -138.27207092	      7.79677766	      2.30000000	      0.00000000	      0.00000000	      0.00000000	    -79.10153180	      5.62376067	      3.52212037	    157.01268993	      5.84827029	      9.47763810	   -131.73001218	     -7.48375289	      2.30000000	      0.00000000	      0.00000000	      0.00000000
      4.30600000	   -137.38092144	     30.25471310	    -14.83986643	     -0.34262574	      0.22783482	     -4.89389461	     76.42343951	     13.28178611	     12.05558560	    -19.53443909	     11.10426565	    -36.24918244	     -6.09524318	    -11.33858083	      1.59630295	     -4.85931824	     -6.29442549	      0.54599646	    -28.08968452	    -43.74425791	    -11.58967409	      0.04777433	     -0.15404704	      0.05742548	    101.93962207	    -13.44569480	    -18.87934673	    -92.53851261	     34.51020734	     23.48530641	     69.20361384	    -19.95384901	      0.80000000	      0.00000000	      0.00000000	      0.00000000	     -9.41058841	     27.02007354	     16.13380288	     -0.01308401	     -0.15373511	      0.04178407	    108.29991951	      4.41430678	     30.91401986	    -84.64183518	    -27.92610274	      7.21063795	      5.64675482	     -1.16202498	      0.80000000	      0.00000000	      0.00000000	      0.00000000	     25.33750598	     -3.68727290	      0.64422655	     -0.00329590	     -0.06220547	      0.02401710	    -74.02530019	    -12.07601260	     -7.35907569	    153.01739040	     -3.82010286	     -4.60391395	   -138.78602684	      8.05983483	      2.30000000	      0.00000000	      0.00000000	      0.00000000	    -77.40491447	      6.22814451	      3.12988974	    155.06388744	      5.57896315	      9.59714868	   -132.66701824	     -7.53510878	      2.30000000	      0.00000000	      0.00000000	      0.00000000
